# xmcd
# Track frame offsets:
# 150
# 11854
# 23576
# 35200
# 45852
# 57748
# 69552
# 80205
# 91507
# 103022
# 114106
# 130009
#
# Disc length: 1873 seconds
# Revision: 0
# Processed by: cddbd v1.4PL0 Copyright (c) Steve Scherf et al.
# Submitted via: VisiTrax 2.9.5.181 - For more info visit www.synapsa.com
#
DISCID=95074f0c
DTITLE=Cuhamileros De La Sierra De Xichu - Country A La Mexicana
DYEAR=1900
DGENRE=Misc
TTITLE0=La Del Moño Colorado
TTITLE1=Atotonilco
TTITLE2=La Mula Bronca
TTITLE3=Dos Palomas Al Volar
TTITLE4=Rancho Alegre
TTITLE5=Las Gaviotas
TTITLE6=El Sauce Y La Paloma
TTITLE7=La Rielera
TTITLE8=Corazon De Texas
TTITLE9=El Buey De La Barranca
TTITLE10=El Taconazo Y el Sube Y Baja (potpourri)
TTITLE11=El Hijo E Su
EXTD=
EXTT0=
EXTT1=
EXTT2=
EXTT3=
EXTT4=
EXTT5=
EXTT6=
EXTT7=
EXTT8=
EXTT9=
EXTT10=
EXTT11=
PLAYORDER=
